<?xml version="1.0" encoding="UTF-8"?>
<svg xmlns="http://www.w3.org/2000/svg" xmlns:xlink="http://www.w3.org/1999/xlink" width="20pt" height="20pt" viewBox="0 0 20 20" version="1.1">
<g id="surface1">
<path style=" stroke:none;fill-rule:nonzero;fill:rgb(12.941176%,38.039216%,100%);fill-opacity:1;" d="M 15.832031 20 L 5 20 C 4.078125 20 3.332031 19.253906 3.332031 18.332031 L 3.332031 1.667969 C 3.332031 0.746094 4.078125 0 5 0 L 15.832031 0 C 16.753906 0 17.5 0.746094 17.5 1.667969 L 17.5 18.332031 C 17.5 19.253906 16.753906 20 15.832031 20 Z M 5 1.667969 L 5 18.332031 L 15.832031 18.332031 L 15.832031 1.667969 Z M 5 1.667969 "/>
<path style=" stroke:none;fill-rule:nonzero;fill:rgb(12.941176%,38.039216%,100%);fill-opacity:1;" d="M 5 2.917969 L 15.832031 2.917969 L 15.832031 4.582031 L 5 4.582031 Z M 5 2.917969 "/>
<path style=" stroke:none;fill-rule:nonzero;fill:rgb(12.941176%,38.039216%,100%);fill-opacity:1;" d="M 11.25 17.082031 L 9.582031 17.082031 C 9.125 17.082031 8.75 16.710938 8.75 16.25 C 8.75 15.789062 9.125 15.417969 9.582031 15.417969 L 11.25 15.417969 C 11.710938 15.417969 12.082031 15.789062 12.082031 16.25 C 12.082031 16.710938 11.710938 17.082031 11.25 17.082031 Z M 11.25 17.082031 "/>
<path style=" stroke:none;fill-rule:nonzero;fill:rgb(12.941176%,38.039216%,100%);fill-opacity:1;" d="M 5 12.5 L 15.832031 12.5 L 15.832031 14.167969 L 5 14.167969 Z M 5 12.5 "/>
<path style=" stroke:none;fill-rule:nonzero;fill:rgb(65.098039%,78.039216%,100%);fill-opacity:1;" d="M 8.332031 11.667969 C 8.035156 11.667969 7.761719 11.507812 7.613281 11.25 L 6.191406 8.695312 L 5.285156 10.058594 C 5.125 10.289062 4.863281 10.421875 4.582031 10.417969 L 0.832031 10.417969 C 0.375 10.417969 0 10.042969 0 9.582031 C 0 9.125 0.375 8.75 0.832031 8.75 L 4.136719 8.75 L 5.558594 6.621094 C 5.71875 6.378906 5.996094 6.238281 6.285156 6.25 C 6.574219 6.261719 6.839844 6.425781 6.980469 6.679688 L 8.332031 9.167969 L 10.511719 5.417969 C 10.664062 5.152344 10.945312 4.996094 11.25 5 C 11.546875 5 11.820312 5.160156 11.964844 5.417969 L 13.960938 8.75 L 14.796875 8.089844 C 14.945312 7.976562 15.125 7.914062 15.3125 7.917969 L 19.167969 7.917969 C 19.625 7.917969 20 8.289062 20 8.75 C 20 9.210938 19.625 9.582031 19.167969 9.582031 L 15.605469 9.582031 L 14.25 10.652344 C 14.0625 10.808594 13.8125 10.875 13.574219 10.832031 C 13.332031 10.789062 13.121094 10.640625 13 10.429688 L 11.25 7.476562 L 9.054688 11.25 C 8.90625 11.507812 8.628906 11.667969 8.332031 11.667969 Z M 8.332031 11.667969 "/>
</g>
</svg>
